<?xml version="1.0" encoding="UTF-8"?>
<svg xmlns="http://www.w3.org/2000/svg" xmlns:xlink="http://www.w3.org/1999/xlink" viewBox="0 0 64 64" width="64px" height="64px">
<g id="surface6260085">
<path style=" stroke:none;fill-rule:nonzero;fill:rgb(40.000001%,40.000001%,40.000001%);fill-opacity:1;" d="M 42.035156 9.773438 C 41.476562 9.765625 40.910156 9.804688 40.355469 9.886719 C 38.007812 10.230469 35.75 11.390625 34.175781 13.4375 C 32.601562 15.484375 31.738281 18.382812 32.003906 22.070312 C 32.027344 22.425781 32.242188 22.742188 32.5625 22.898438 C 32.882812 23.054688 33.265625 23.03125 33.558594 22.828125 C 33.855469 22.628906 34.023438 22.285156 34 21.929688 C 33.761719 18.617188 34.523438 16.265625 35.761719 14.65625 C 37 13.046875 38.742188 12.144531 40.644531 11.867188 C 44.445312 11.304688 48.71875 13.324219 50.050781 17.316406 C 50.1875 17.726562 50.570312 18 51 18 L 55.132812 18 L 52.167969 22.445312 C 52.058594 22.609375 52 22.800781 52 23 C 52 32.332031 49.679688 38.773438 46.199219 43.175781 C 42.71875 47.582031 38.042969 50.003906 33.148438 51.152344 C 28.25 52.300781 23.152344 52.152344 19.003906 51.40625 C 16.101562 50.886719 13.992188 50.046875 12.46875 49.261719 C 14.75 48.660156 19.59375 47.253906 24.808594 43.792969 C 27.976562 44.558594 30.304688 44.507812 31.910156 43.847656 C 33.582031 43.160156 34.476562 41.746094 34.425781 40.394531 C 34.371094 39.042969 33.433594 37.804688 32.027344 37.449219 C 30.617188 37.097656 28.914062 37.664062 27.292969 39.292969 C 26.429688 40.160156 25.292969 40.816406 24.242188 41.550781 C 17.648438 39.65625 14.097656 36.117188 12.195312 32.957031 C 10.910156 30.820312 10.46875 29.242188 10.246094 28.164062 C 11.0625 28.261719 11.972656 28.363281 14.027344 28.644531 C 14.066406 28.71875 14.097656 28.8125 14.140625 28.882812 C 16.25 32.445312 18.835938 34.332031 20.683594 34.949219 C 21.703125 35.289062 22.742188 35.113281 23.515625 34.625 C 24.289062 34.140625 24.828125 33.382812 25.082031 32.535156 C 25.335938 31.691406 25.300781 30.714844 24.828125 29.859375 C 24.355469 29.003906 23.453125 28.332031 22.242188 28.027344 C 20.46875 27.585938 17.796875 27.191406 15.363281 26.839844 C 13.96875 24.132812 12.980469 20.425781 12.984375 15.542969 C 15.621094 18.667969 19.046875 21.679688 23.183594 23.765625 C 28.210938 26.304688 33.957031 27.554688 39.289062 25.957031 C 39.644531 25.867188 39.921875 25.589844 40.011719 25.230469 C 40.101562 24.875 39.988281 24.5 39.714844 24.25 C 39.445312 24 39.058594 23.921875 38.710938 24.042969 C 34.042969 25.445312 28.800781 24.363281 24.082031 21.980469 C 19.367188 19.601562 15.21875 15.929688 12.824219 12.433594 C 12.582031 12.085938 12.148438 11.925781 11.738281 12.035156 C 11.328125 12.148438 11.03125 12.503906 11 12.929688 C 10.59375 18.664062 11.519531 23.097656 12.972656 26.484375 C 11.089844 26.246094 9.109375 26.003906 9.109375 26.003906 C 8.8125 25.972656 8.515625 26.074219 8.304688 26.28125 C 8.089844 26.492188 7.980469 26.785156 8.003906 27.082031 C 8.003906 27.082031 8.28125 30.328125 10.480469 33.988281 C 12.453125 37.261719 16.15625 40.839844 22.320312 42.972656 C 16.5 46.367188 9.773438 48.023438 9.773438 48.023438 C 9.417969 48.109375 9.136719 48.375 9.039062 48.726562 C 8.9375 49.074219 9.035156 49.449219 9.292969 49.707031 C 10.910156 51.324219 14.269531 52.589844 18.652344 53.375 C 23.035156 54.160156 28.375 54.324219 33.601562 53.097656 C 38.832031 51.871094 43.96875 49.230469 47.769531 44.414062 C 51.523438 39.664062 53.917969 32.816406 53.976562 23.335938 L 57.832031 17.554688 C 58.035156 17.246094 58.054688 16.851562 57.882812 16.527344 C 57.707031 16.203125 57.367188 16 57 16 L 51.558594 16 C 49.878906 12.070312 45.96875 9.835938 42.035156 9.773438 Z M 16.910156 29.140625 C 18.664062 29.414062 20.582031 29.675781 21.757812 29.96875 C 22.546875 30.167969 22.894531 30.496094 23.078125 30.828125 C 23.261719 31.160156 23.289062 31.558594 23.167969 31.960938 C 23.046875 32.367188 22.773438 32.734375 22.453125 32.933594 C 22.132812 33.136719 21.796875 33.210938 21.316406 33.050781 C 20.367188 32.734375 18.578125 31.324219 16.914062 29.140625 Z M 31.046875 39.351562 C 31.234375 39.339844 31.398438 39.355469 31.539062 39.390625 C 32.09375 39.527344 32.40625 39.972656 32.425781 40.46875 C 32.441406 40.96875 32.230469 41.558594 31.152344 41.996094 C 30.367188 42.320312 28.898438 42.347656 27.066406 42.113281 C 27.625 41.652344 28.203125 41.210938 28.710938 40.703125 C 29.6875 39.722656 30.480469 39.394531 31.046875 39.351562 Z M 31.046875 39.351562 "/>
</g>
</svg>
